<svg width="1200" height="900" viewBox="0 0 1200 900" fill="none" xmlns="http://www.w3.org/2000/svg">
  <defs>
    <linearGradient id="bg" x1="120" y1="60" x2="1080" y2="840" gradientUnits="userSpaceOnUse">
      <stop stop-color="#111827"/>
      <stop offset="0.52" stop-color="#283241"/>
      <stop offset="1" stop-color="#B8894B"/>
    </linearGradient>
    <radialGradient id="glow" cx="0" cy="0" r="1" gradientUnits="userSpaceOnUse" gradientTransform="translate(840 230) rotate(115) scale(420 300)">
      <stop stop-color="#FFF7EA" stop-opacity="0.35"/>
      <stop offset="1" stop-color="#FFF7EA" stop-opacity="0"/>
    </radialGradient>
  </defs>
  <rect width="1200" height="900" rx="56" fill="url(#bg)"/>
  <rect width="1200" height="900" rx="56" fill="url(#glow)"/>
  <circle cx="245" cy="245" r="138" fill="#D9B56F" fill-opacity="0.16"/>
  <circle cx="960" cy="710" r="182" fill="#FFF7EA" fill-opacity="0.09"/>
  <path d="M180 706C270 636 336 608 446 615C566 622 659 705 778 710C887 714 979 662 1048 596" stroke="#FFF7EA" stroke-opacity="0.22" stroke-width="6" stroke-linecap="round"/>
  <path d="M250 704C338 648 404 628 494 631C600 635 685 702 797 705C882 707 964 673 1025 618" stroke="#111827" stroke-opacity="0.18" stroke-width="3" stroke-linecap="round"/>
  <text x="88" y="430" fill="#FFF7EA" fill-opacity="0.96" font-size="88" font-family="Arial, sans-serif" font-weight="700" letter-spacing="7">MAITHILI HARVEST</text>
  <text x="92" y="492" fill="#FFF7EA" fill-opacity="0.78" font-size="30" font-family="Arial, sans-serif" letter-spacing="5">AUTHENTIC FOOD FROM MITHILA</text>
  <rect x="86" y="548" width="230" height="70" rx="35" fill="#FFF7EA" fill-opacity="0.12" stroke="#FFF7EA" stroke-opacity="0.28"/>
  <text x="143" y="593" fill="#FFF7EA" fill-opacity="0.9" font-size="24" font-family="Arial, sans-serif" letter-spacing="4">PREMIUM</text>
</svg>