<svg xmlns="http://www.w3.org/2000/svg" viewBox="0 0 440 160" fill="none">
  <path d="M28 96c24-30 54-50 74-50 18 0 15 28-7 28-15 0-36-13-36-13s21 28 48 28c30 0 64-27 93-27 25 0 16 29-6 29-24 0-39-17-39-17s25 26 54 26c23 0 46-16 65-33" stroke="#8B3A2A" stroke-width="7" stroke-linecap="round" stroke-linejoin="round"/>
  <path d="M322 44c2 20 7 37 14 50 7 13 18 21 32 21 18 0 34-15 45-44" stroke="#D4A017" stroke-width="6" stroke-linecap="round"/>
  <path d="M25 128h390" stroke="#C8A97E" stroke-width="2" opacity="0.45"/>
</svg>